<svg width="512" height="512" viewBox="0 0 512 512" fill="none" xmlns="http://www.w3.org/2000/svg">
<rect width="512" height="512" rx="124" fill="black"/>
<g filter="url(#filter0_d_990_544)">
<path d="M283.197 225.982C277.801 240.285 271.271 253.923 267.497 268.58C266.235 273.48 265.729 278.414 265.897 283.48C266.191 292.335 271.515 294.888 279.376 293.118C284.17 292.039 287.802 288.948 290.744 285.101C298.014 275.596 302.755 264.691 307.842 253.986C318.236 232.112 327.858 209.866 339.243 188.472C344.655 178.301 351.117 168.855 360.38 161.674C368.28 155.55 377.234 152.473 387.242 152.485C390.734 152.489 394.225 152.486 398 152.486C397.7 156.882 396.36 160.567 395.499 164.328C393.883 171.386 393.791 171.39 386.447 171.432C378.68 171.476 372.955 175.494 367.984 180.908C360.486 189.073 355.272 198.701 350.434 208.563C339.412 231.028 329.659 254.091 318.398 276.442C314.231 284.713 309.751 292.802 303.484 299.735C293.973 310.256 282.198 314.691 268.215 312.039C255.517 309.631 247.709 299.765 246.819 286.742C245.878 272.968 249.251 260.095 253.924 247.382C260.093 230.599 267.46 214.272 273.111 197.297C274.912 191.888 276.509 186.353 275.246 180.499C274.239 175.835 271.696 172.521 266.812 171.834C257.441 170.517 251.013 171.396 244.834 180.001C239.491 187.442 236.524 196.039 233.443 204.529C221.039 238.705 208.982 273.003 197.229 307.408C196.422 309.772 196.702 310.828 199.226 311.862C214.2 317.992 228.751 325.122 243.937 330.763C255.393 335.019 267.116 338.208 279.374 338.657C295.98 339.265 310.357 334.436 320.475 320.377C322.041 318.201 323.251 317.729 325.498 319.504C328.885 322.18 332.489 324.59 336.072 327.006C337.779 328.157 337.939 329.173 336.762 330.921C327.502 344.671 314.539 352.791 298.452 356.011C279.472 359.81 261.072 356.694 243.022 350.692C225.339 344.811 208.582 336.7 191.72 328.875C189.105 327.662 187.97 327.987 186.614 330.484C182.615 337.848 177.974 344.788 171.297 350.069C159.474 359.421 146.388 362.352 131.997 357.144C121.506 353.347 114.483 342.37 113.999 331.19C113.207 312.916 127.599 299.044 145.974 298.269C156.086 297.843 165.77 299.635 175.286 302.687C177.704 303.463 178.614 302.836 179.408 300.529C189.145 272.231 198.861 243.924 208.829 215.707C213.811 201.605 218.419 187.308 225.698 174.145C231.719 163.256 240.435 155.582 253.03 153.298C261.871 151.694 270.686 151.628 278.908 156.038C291.131 162.595 296.764 175.023 294.734 189.374C292.923 202.178 287.793 213.856 283.197 225.982ZM133.114 330.125C133.588 335.613 136.832 339.568 142.012 340.419C146.553 341.165 151.028 340.69 155.13 338.325C162.126 334.291 166.056 327.714 170.044 320.745C161.838 318.042 153.867 316.066 145.555 317.026C137.66 317.937 133.397 322.509 133.114 330.125Z" fill="white"/>
<path d="M253.052 153.416C261.88 151.815 270.664 151.752 278.851 156.144C291.024 162.674 296.639 175.05 294.615 189.357C292.807 202.144 287.683 213.806 283.084 225.939C277.694 240.23 271.157 253.885 267.381 268.55C266.116 273.462 265.609 278.407 265.777 283.484C265.925 287.934 267.338 290.831 269.733 292.384C272.123 293.933 275.459 294.123 279.402 293.235C284.233 292.148 287.888 289.033 290.839 285.175C298.119 275.657 302.866 264.736 307.95 254.037C318.347 232.159 327.966 209.92 339.349 188.529C344.757 178.365 351.21 168.935 360.453 161.77C368.333 155.661 377.261 152.594 387.242 152.605C390.693 152.61 394.145 152.606 397.869 152.605C397.553 156.933 396.238 160.56 395.382 164.302C394.977 166.068 394.67 167.385 394.322 168.37C393.975 169.355 393.592 169.992 393.047 170.416C392.501 170.84 391.778 171.062 390.72 171.178C389.661 171.293 388.285 171.302 386.446 171.312C378.632 171.357 372.877 175.401 367.896 180.826C360.385 189.005 355.165 198.647 350.326 208.51C344.815 219.744 339.62 231.128 334.396 242.495C329.173 253.863 323.92 265.215 318.291 276.389C314.125 284.657 309.65 292.734 303.395 299.654C293.91 310.147 282.176 314.564 268.237 311.921C255.6 309.524 247.825 299.709 246.938 286.733C245.999 272.985 249.366 260.13 254.036 247.424C257.12 239.034 260.503 230.759 263.823 222.456C267.143 214.154 270.398 205.826 273.226 197.335C275.026 191.927 276.635 186.363 275.363 180.474C274.857 178.128 273.962 176.111 272.571 174.594C271.179 173.075 269.296 172.063 266.829 171.716C262.139 171.057 258.167 170.944 254.59 172.083C251.009 173.223 247.838 175.613 244.737 179.931C239.382 187.388 236.41 196.002 233.33 204.488C220.926 238.664 208.869 272.963 197.116 307.369C196.712 308.552 196.564 309.446 196.867 310.18C197.171 310.916 197.913 311.454 199.181 311.973C214.142 318.097 228.709 325.235 243.895 330.876C255.357 335.134 267.094 338.328 279.37 338.777C296.004 339.387 310.425 334.547 320.572 320.447C321.354 319.36 322.026 318.734 322.757 318.576C323.481 318.42 324.307 318.717 325.424 319.599C328.815 322.278 332.423 324.69 336.005 327.105C336.851 327.676 337.283 328.193 337.381 328.76C337.479 329.328 337.247 329.986 336.662 330.854C327.421 344.576 314.486 352.679 298.429 355.894C279.476 359.687 261.099 356.577 243.061 350.578C225.385 344.7 208.635 336.593 191.771 328.767C190.461 328.159 189.486 327.918 188.659 328.174C187.831 328.431 187.189 329.174 186.509 330.427C182.513 337.785 177.88 344.708 171.223 349.975C159.428 359.304 146.385 362.224 132.038 357.031C121.599 353.253 114.602 342.324 114.119 331.185C113.331 312.986 127.662 299.161 145.979 298.389C156.072 297.963 165.743 299.753 175.249 302.802C176.465 303.192 177.339 303.242 178.014 302.869C178.685 302.497 179.124 301.724 179.521 300.568C189.259 272.27 198.974 243.963 208.942 215.746C213.926 201.64 218.53 187.356 225.803 174.203C231.81 163.338 240.5 155.693 253.052 153.416ZM170.081 320.632C161.872 317.928 153.88 315.944 145.541 316.906C141.574 317.364 138.505 318.744 136.393 320.979C134.28 323.213 133.136 326.291 132.994 330.12V330.135C133.472 335.669 136.75 339.676 141.992 340.537C146.554 341.286 151.059 340.811 155.189 338.43C162.217 334.377 166.162 327.77 170.148 320.805L170.221 320.678L170.081 320.632Z" stroke="#808080" stroke-opacity="0.28" stroke-width="0.239936"/>
<circle cx="346.386" cy="305.413" r="9.76245" fill="#4272EE"/>
<circle cx="346.386" cy="305.413" r="9.64248" stroke="#808080" stroke-opacity="0.28" stroke-width="0.239936"/>
</g>
<defs>
<filter id="filter0_d_990_544" x="113.488" y="151.817" width="285.952" height="209.326" filterUnits="userSpaceOnUse" color-interpolation-filters="sRGB">
<feFlood flood-opacity="0" result="BackgroundImageFix"/>
<feColorMatrix in="SourceAlpha" type="matrix" values="0 0 0 0 0 0 0 0 0 0 0 0 0 0 0 0 0 0 127 0" result="hardAlpha"/>
<feOffset dx="0.479871" dy="0.479871"/>
<feGaussianBlur stdDeviation="0.479871"/>
<feComposite in2="hardAlpha" operator="out"/>
<feColorMatrix type="matrix" values="0 0 0 0 0 0 0 0 0 0 0 0 0 0 0 0 0 0 0.25 0"/>
<feBlend mode="normal" in2="BackgroundImageFix" result="effect1_dropShadow_990_544"/>
<feBlend mode="normal" in="SourceGraphic" in2="effect1_dropShadow_990_544" result="shape"/>
</filter>
</defs>
</svg>
